<svg id="social_icon" data-name="social icon" xmlns="http://www.w3.org/2000/svg" width="155" height="41" viewBox="0 0 155 41">
  <defs>
    <style>
      .cls-1 {
        fill: #fff;
      }

      .cls-1, .cls-2 {
        fill-rule: evenodd;
      }

      .cls-2 {
        fill: #ff0036;
      }
    </style>
  </defs>
  <g id="Facebook">
    <path id="Shape_3_copy" data-name="Shape 3 copy" class="cls-1" d="M184.251,5014L173,4993.5l11.249-20.5h22.5L218,4993.5l-11.25,20.5h-22.5Z" transform="translate(-173 -4973)"/>
    <path id="Facebook_Icon" data-name="Facebook Icon" class="cls-2" d="M197.675,4985.21h-1.827a3.5,3.5,0,0,0-3.812,3.76v2.79h-2.588l0.007,2.18h2.58l0,9.58h2.593v-9.58h2.856l0.61-2.18h-3.452v-2.87a1.068,1.068,0,0,1,1.207-1.06h1.812Z" transform="translate(-173 -4973)"/>
  </g>
  <g id="Google_" data-name="Google +">
    <path id="Shape_3_copy-2" data-name="Shape 3 copy" class="cls-1" d="M239.251,5014L228,4993.5l11.249-20.5h22.5L273,4993.5l-11.25,20.5h-22.5Z" transform="translate(-173 -4973)"/>
    <path id="Twitter_Icon" data-name="Twitter Icon" class="cls-2" d="M259.726,4989.53a7.309,7.309,0,0,1-2.088.57,3.644,3.644,0,0,0,1.6-1.98,7.34,7.34,0,0,1-2.307.87,3.641,3.641,0,0,0-2.653-1.13,3.6,3.6,0,0,0-3.635,3.57,3.481,3.481,0,0,0,.094.81,10.386,10.386,0,0,1-7.492-3.73,3.514,3.514,0,0,0-.492,1.8,3.561,3.561,0,0,0,1.617,2.97,3.656,3.656,0,0,1-1.646-.45c0,0.01,0,.03,0,0.04a3.582,3.582,0,0,0,2.916,3.5,3.374,3.374,0,0,1-.958.13,3.1,3.1,0,0,1-.684-0.07,3.632,3.632,0,0,0,3.4,2.48,7.365,7.365,0,0,1-4.514,1.53,8.241,8.241,0,0,1-.867-0.05,10.444,10.444,0,0,0,5.571,1.6,10.166,10.166,0,0,0,10.341-10.15c0-.15,0-0.31-0.009-0.46A7.214,7.214,0,0,0,259.726,4989.53Z" transform="translate(-173 -4973)"/>
  </g>
  <g id="Twitter">
    <path id="Shape_3_copy-3" data-name="Shape 3 copy" class="cls-1" d="M294.251,5014L283,4993.5l11.249-20.5h22.5L328,4993.5l-11.25,20.5h-22.5Z" transform="translate(-173 -4973)"/>
    <path id="G_Icon" data-name="G+ Icon" class="cls-2" d="M307.087,4996.08a3.022,3.022,0,0,1-1.252-1.28,1.432,1.432,0,0,1,.854-1.25,2.839,2.839,0,0,0,1.255-2.23,2.641,2.641,0,0,0-1.206-2.37h1.116l0.95-.95h-4.251c-2.156,0-3.954,1.54-3.954,3.26a3.023,3.023,0,0,0,3.21,3.15c0.141,0,.278-0.01.412-0.02a1.775,1.775,0,0,0-.226.82,1.448,1.448,0,0,0,.611,1.09h-0.771c-2.47,0-4.184.77-4.184,3.16,0,1.58,2.07,2.68,4.54,2.68,2.815,0,4.571-1.46,4.546-3.15C308.718,4997.73,308.459,4997.09,307.087,4996.08Zm-4.765-4.74a1.915,1.915,0,0,1,1.851-2.33c1.087,0.03,1.8,1.08,1.982,2.48s-0.437,2.25-1.524,2.22A2.568,2.568,0,0,1,302.322,4991.34Zm1.82,9.77c-1.6,0-2.763-.91-2.763-2.02s1.3-1.68,2.871-1.68c0.585,0,2.338,0,2.883,1.34a1.085,1.085,0,0,1,.051.39C307.184,5000.26,306.4,5001.11,304.142,5001.11ZM314,4990.68h-2.045v2.03h-0.679v-2.03H309.23v-0.66h2.042V4988h0.679v2.02H314v0.66Z" transform="translate(-173 -4973)"/>
  </g>
</svg>
